<?xml version="1.0" encoding="UTF-8" standalone="no"?>
<!DOCTYPE svg PUBLIC "-//W3C//DTD SVG 1.1//EN"
 "http://www.w3.org/Graphics/SVG/1.1/DTD/svg11.dtd">
<!-- Generated by graphviz version 2.38.0 (20140413.2041)
 -->
<!-- Title: dependency&#45;cruiser output Pages: 1 -->
<svg width="183pt" height="136pt"
 viewBox="0.00 0.00 183.00 136.00" xmlns="http://www.w3.org/2000/svg" xmlns:xlink="http://www.w3.org/1999/xlink">
<g id="graph0" class="graph" transform="scale(1 1) rotate(0) translate(4 132)">
<title>dependency&#45;cruiser output</title>
<g id="clust1" class="cluster"><title>cluster_src</title>
<path fill="#ffffff" stroke="black" stroke-width="2" d="M29,-68C29,-68 155,-68 155,-68 161,-68 167,-74 167,-80 167,-80 167,-108 167,-108 167,-114 161,-120 155,-120 155,-120 29,-120 29,-120 23,-120 17,-114 17,-108 17,-108 17,-80 17,-80 17,-74 23,-68 29,-68"/>
<text text-anchor="middle" x="92" y="-108.8" font-family="Helvetica,sans-Serif" font-weight="bold" font-size="9.00">src</text>
</g>
<g id="clust2" class="cluster"><title>cluster_test</title>
<path fill="#ffffff" stroke="black" stroke-width="2" d="M20,-8C20,-8 84,-8 84,-8 90,-8 96,-14 96,-20 96,-20 96,-48 96,-48 96,-54 90,-60 84,-60 84,-60 20,-60 20,-60 14,-60 8,-54 8,-48 8,-48 8,-20 8,-20 8,-14 14,-8 20,-8"/>
<text text-anchor="middle" x="52" y="-48.8" font-family="Helvetica,sans-Serif" font-weight="bold" font-size="9.00">test</text>
</g>
<!-- src/Ellipse.js -->
<g id="node1" class="node"><title>src/Ellipse.js</title>
<g id="a_node1"><a xlink:href="src/Ellipse.js" xlink:title="Ellipse.js">
<path fill="#ffffcc" stroke="black" d="M153,-94C153,-94 110,-94 110,-94 107,-94 104,-91 104,-88 104,-88 104,-82 104,-82 104,-79 107,-76 110,-76 110,-76 153,-76 153,-76 156,-76 159,-79 159,-82 159,-82 159,-88 159,-88 159,-91 156,-94 153,-94"/>
<text text-anchor="middle" x="131.5" y="-82.8" font-family="Helvetica,sans-Serif" font-size="9.00">Ellipse.js</text>
</a>
</g>
</g>
<!-- src/app.js -->
<g id="node2" class="node"><title>src/app.js</title>
<g id="a_node2"><a xlink:href="src/app.js" xlink:title="app.js">
<path fill="#ffffcc" stroke="black" d="M73,-94C73,-94 31,-94 31,-94 28,-94 25,-91 25,-88 25,-88 25,-82 25,-82 25,-79 28,-76 31,-76 31,-76 73,-76 73,-76 76,-76 79,-79 79,-82 79,-82 79,-88 79,-88 79,-91 76,-94 73,-94"/>
<text text-anchor="middle" x="52" y="-82.8" font-family="Helvetica,sans-Serif" font-size="9.00">app.js</text>
</a>
</g>
</g>
<!-- src/app.js&#45;&gt;src/Ellipse.js -->
<g id="edge1" class="edge"><title>src/app.js&#45;&gt;src/Ellipse.js</title>
<path fill="none" stroke="#999999" d="M79.238,-85C85.4132,-85 92.0633,-85 98.4617,-85"/>
<polygon fill="#999999" stroke="#999999" points="98.7611,-86.7501 103.761,-85 98.761,-83.2501 98.7611,-86.7501"/>
</g>
<!-- test/Ellipse.test.js -->
<g id="node3" class="node"><title>test/Ellipse.test.js</title>
<g id="a_node3"><a xlink:href="test/Ellipse.test.js" xlink:title="Ellipse.test.js">
<path fill="#ffffcc" stroke="black" d="M82,-34C82,-34 22,-34 22,-34 19,-34 16,-31 16,-28 16,-28 16,-22 16,-22 16,-19 19,-16 22,-16 22,-16 82,-16 82,-16 85,-16 88,-19 88,-22 88,-22 88,-28 88,-28 88,-31 85,-34 82,-34"/>
<text text-anchor="middle" x="52" y="-22.8" font-family="Helvetica,sans-Serif" font-size="9.00">Ellipse.test.js</text>
</a>
</g>
</g>
<!-- test/Ellipse.test.js&#45;&gt;src/Ellipse.js -->
<g id="edge2" class="edge"><title>test/Ellipse.test.js&#45;&gt;src/Ellipse.js</title>
<path fill="none" stroke="#999999" d="M64.7706,-34.1127C78.1627,-44.4808 100.09,-61.4566 114.898,-72.9209"/>
<polygon fill="#999999" stroke="#999999" points="113.848,-74.321 118.873,-75.9981 115.99,-71.5534 113.848,-74.321"/>
</g>
</g>
</svg>
